<svg width="1283" height="2978" viewBox="0 0 1283 2978" fill="none" xmlns="http://www.w3.org/2000/svg">
<rect x="1" y="2305" width="1280" height="671" fill="#001B19"/>
<path d="M870.417 1863.74C870.417 1863.74 1006.92 1807.14 1110.43 1732.47M1110.43 1732.47C1127.15 1720.41 1143.01 1707.88 1157.3 1695.04M1110.43 1732.47C1109.17 1743.15 1105.74 1753.9 1100.5 1764.63M1110.43 1732.47C1114.23 1700.34 1098.36 1668.82 1052.89 1640.16C920.693 1556.87 587.761 1530.77 458.189 1447.36C384.967 1400.22 410.264 1361.24 470.339 1324.83M1157.3 1695.04C1228.14 1631.35 1260.25 1560.06 1166.49 1500.98C1034.29 1417.68 701.358 1391.59 571.785 1308.17C560.425 1300.86 551.436 1293.74 544.58 1286.8M1157.3 1695.04C1145.79 1718.6 1125.57 1742.09 1100.5 1764.63M1157.3 1695.04C1178.31 1652.02 1170.27 1608.75 1109.69 1570.57C977.491 1487.28 644.56 1461.18 514.987 1377.76C485.743 1358.94 472.214 1341.41 470.339 1324.83M544.58 1286.8C533.789 1275.87 528.284 1265.38 527.137 1255.24M544.58 1286.8C517.353 1299.32 491.656 1311.92 470.339 1324.83M544.58 1286.8C645.525 1240.38 767.515 1194.97 765.415 1137.85M527.137 1255.24C524.374 1230.81 546.913 1208.44 581.763 1186.98M527.137 1255.24C491.055 1277.11 467.519 1299.9 470.339 1324.83M527.137 1255.24C592.759 1215.47 699.878 1178.77 765.415 1137.85M581.763 1186.98C626.972 1159.14 692.902 1132.83 751.191 1105.58M581.763 1186.98C463.82 1246.34 303.589 1336.48 191.57 1436.62M581.763 1186.98C672.134 1141.49 737.677 1114.08 737.677 1114.08M751.191 1105.58C777.233 1093.4 801.75 1081.04 822.213 1068.26M751.191 1105.58C760.581 1116.77 765.035 1127.51 765.415 1137.85M751.191 1105.58C748.969 1102.93 746.47 1100.26 743.683 1097.55C736.69 1090.77 728.704 1084.25 719.838 1077.95M822.213 1068.26C874.582 1035.56 900.4 1000.17 857.28 958.37C746.652 851.121 387.754 807.581 224.206 702.002C111.065 628.963 95.9998 546.343 135.492 464.131M822.213 1068.26C823.136 1093.36 800.099 1116.2 765.415 1137.85M822.213 1068.26C821.743 1055.46 815.043 1042.08 800.482 1027.96C793.488 1021.18 785.502 1014.66 776.637 1008.35M135.492 464.131C140.852 452.971 147.218 441.819 154.481 430.7M135.492 464.131C122.154 476.055 109.5 488.12 97.6822 500.292M135.492 464.131C333.342 287.257 681.599 141.584 681.599 141.584M154.481 430.7C298.522 210.154 795.195 2.40036 795.195 2.40036M154.481 430.7C132.25 453.597 112.978 476.872 97.6822 500.292M154.481 430.7C341.605 237.967 738.397 71.9921 738.397 71.9921M926.496 2836.23C926.496 2836.23 1063 2779.63 1166.51 2704.96M1166.51 2704.96C1183.23 2692.9 1199.09 2680.37 1213.38 2667.53M1166.51 2704.96C1165.25 2715.64 1161.82 2726.39 1156.58 2737.12M1166.51 2704.96C1170.31 2672.83 1154.44 2641.31 1108.97 2612.66C976.772 2529.36 643.84 2503.26 514.268 2419.85C441.045 2372.71 466.343 2333.73 526.418 2297.32M1213.38 2667.53C1284.22 2603.84 1316.33 2532.55 1222.56 2473.47C1090.37 2390.17 757.437 2364.08 627.864 2280.66C616.504 2273.35 607.515 2266.23 600.659 2259.29M1213.38 2667.53C1201.87 2691.09 1181.65 2714.58 1156.58 2737.12M1213.38 2667.53C1234.38 2624.51 1226.35 2581.24 1165.77 2543.06C1033.57 2459.77 700.638 2433.67 571.066 2350.25C541.822 2331.43 528.293 2313.9 526.418 2297.32M600.659 2259.29C589.868 2248.36 584.363 2237.87 583.216 2227.73M600.659 2259.29C573.432 2271.81 547.735 2284.41 526.418 2297.32M600.659 2259.29C701.604 2212.87 823.594 2167.46 821.494 2110.34M583.216 2227.73C576.869 2171.61 704.048 2126.33 807.27 2078.07M583.216 2227.73C547.134 2249.6 523.598 2272.39 526.418 2297.32M583.216 2227.73C648.838 2187.96 755.957 2151.26 821.494 2110.34M807.27 2078.07C833.312 2065.89 857.829 2053.53 878.292 2040.75M807.27 2078.07C816.66 2089.26 821.113 2100 821.494 2110.34M807.27 2078.07C805.048 2075.42 802.549 2072.75 799.762 2070.05C689.135 1962.8 330.236 1919.26 166.688 1813.68C5.84255 1709.84 43.2139 1586.64 153.761 1472.78M878.292 2040.75C930.66 2008.06 956.478 1972.66 913.359 1930.86C912.097 1929.64 910.803 1928.42 909.478 1927.22M878.292 2040.75C879.215 2065.85 856.178 2088.69 821.494 2110.34M878.292 2040.75C877.822 2027.96 871.122 2014.57 856.561 2000.45C846.758 1990.95 835.005 1981.95 821.612 1973.36M909.478 1927.22C900.504 1919.05 890.08 1911.25 878.41 1903.76M909.478 1927.22C877.724 1945.33 847.039 1961.02 821.612 1973.36M909.478 1927.22C987.293 1882.84 1071.52 1823.97 1100.5 1764.63M878.41 1903.76C740.66 1815.41 429.34 1770.72 280.285 1674.49C167.143 1601.45 152.079 1518.83 191.57 1436.62M878.41 1903.76C840.022 1922.38 813.619 1933.33 813.619 1933.33M878.41 1903.76C941.405 1873.21 1036.67 1822.01 1100.5 1764.63M191.57 1436.62C196.931 1425.46 203.297 1414.31 210.559 1403.19M191.57 1436.62C178.233 1448.55 165.579 1460.61 153.761 1472.78M210.559 1403.19C299.662 1266.76 523.702 1135.23 681.641 1054.74M210.559 1403.19C188.328 1426.09 169.056 1449.36 153.761 1472.78M210.559 1403.19C347.235 1262.42 595.765 1135.92 719.838 1077.95M681.641 1054.74C717.497 1036.47 749.947 1020.83 776.637 1008.35M681.641 1054.74C695.663 1062.15 708.474 1069.87 719.838 1077.95M681.641 1054.74C533.577 976.452 250.565 931.535 110.61 841.186C-50.2361 737.352 -12.8649 614.152 97.6822 500.292M776.637 1008.35C822.434 986.955 851.274 974.891 851.274 974.891M776.637 1008.35C645.258 914.96 320.617 870.499 167.408 771.594C38.9084 688.641 36.9189 593.328 97.6822 500.292M869.698 2905.82C869.698 2905.82 1053.86 2829.46 1156.58 2737.12M1156.58 2737.12C1097.93 2857.23 812.899 2975.41 812.899 2975.41M821.612 1973.36C683.861 1885 372.542 1840.31 223.487 1744.09C94.9871 1661.13 92.9976 1565.82 153.761 1472.78M821.612 1973.36C783.224 1991.97 756.821 2002.92 756.821 2002.92M719.838 1077.95C765.635 1056.55 794.476 1044.48 794.476 1044.48" stroke="url(#paint0_linear_362_1259)" stroke-width="4" stroke-dasharray="2 2"/>
<defs>
<linearGradient id="paint0_linear_362_1259" x1="1.75695" y1="1488.5" x2="58.2706" y2="2006.92" gradientUnits="userSpaceOnUse">
<stop stop-color="#00FF57"/>
<stop offset="1" stop-color="#00FFF0"/>
</linearGradient>
</defs>
</svg>
