<svg width="52" height="47" viewBox="0 0 52 47" fill="none" xmlns="http://www.w3.org/2000/svg">
<g filter="url(#filter0_d_354_1139)">
<rect width="18.5842" height="18.5842" transform="matrix(0.87157 0.490272 -0.87157 0.490272 22 16.0264)" fill="#006363"/>
</g>
<g filter="url(#filter1_d_354_1139)">
<rect width="18.5842" height="18.5842" transform="matrix(0.87157 0.490272 -0.87157 0.490272 27.8027 12.158)" fill="#006363"/>
</g>
<g filter="url(#filter2_d_354_1139)">
<rect width="18.5842" height="18.5842" transform="matrix(0.87157 0.490272 -0.87157 0.490272 16.1973 11.6052)" fill="#006363"/>
</g>
<g filter="url(#filter3_d_354_1139)">
<rect width="18.5842" height="18.5842" transform="matrix(0.87157 0.490272 -0.87157 0.490272 22 6.90796)" fill="#006363"/>
</g>
<path d="M32.3413 19.3918L31.0665 14.9016V5.12471C31.0665 4.75175 30.7652 4.45044 30.3922 4.45044H15.5584C15.1854 4.45044 14.8841 4.75175 14.8841 5.12471V14.9016L13.6093 19.3918C13.4513 19.8321 13.7758 20.2957 14.2435 20.2957H31.707C32.1748 20.2957 32.4993 19.8321 32.3413 19.3918ZM16.4012 5.96754H29.5494V14.2905H16.4012V5.96754ZM21.2117 18.7786L21.3823 17.999H24.5493L24.7199 18.7786H21.2117ZM25.9315 18.7786L25.5291 16.9518C25.5122 16.8738 25.4427 16.819 25.3647 16.819H20.569C20.4889 16.819 20.4215 16.8738 20.4046 16.9518L20.0022 18.7786H15.3603L16.2516 15.639H29.699L30.5903 18.7786H25.9315Z" fill="black"/>
<rect x="29.0127" y="9.11841" width="3.8684" height="6.90785" rx="1.9342" fill="#373737"/>
<rect x="24.0391" y="4.42114" width="3.76257" height="3.76257" rx="1.88129" fill="#373737"/>
<rect x="12.1577" y="8.56592" width="8.84205" height="3.8684" rx="1.9342" fill="#373737"/>
<defs>
<filter id="filter0_d_354_1139" x="5.80273" y="16.0264" width="40.3945" height="30.2227" filterUnits="userSpaceOnUse" color-interpolation-filters="sRGB">
<feFlood flood-opacity="0" result="BackgroundImageFix"/>
<feColorMatrix in="SourceAlpha" type="matrix" values="0 0 0 0 0 0 0 0 0 0 0 0 0 0 0 0 0 0 127 0" result="hardAlpha"/>
<feOffset dx="4" dy="8"/>
<feGaussianBlur stdDeviation="2"/>
<feComposite in2="hardAlpha" operator="out"/>
<feColorMatrix type="matrix" values="0 0 0 0 0 0 0 0 0 0 0 0 0 0 0 0 0 0 0.5 0"/>
<feBlend mode="normal" in2="BackgroundImageFix" result="effect1_dropShadow_354_1139"/>
<feBlend mode="normal" in="SourceGraphic" in2="effect1_dropShadow_354_1139" result="shape"/>
</filter>
<filter id="filter1_d_354_1139" x="11.6055" y="12.158" width="40.3945" height="30.2227" filterUnits="userSpaceOnUse" color-interpolation-filters="sRGB">
<feFlood flood-opacity="0" result="BackgroundImageFix"/>
<feColorMatrix in="SourceAlpha" type="matrix" values="0 0 0 0 0 0 0 0 0 0 0 0 0 0 0 0 0 0 127 0" result="hardAlpha"/>
<feOffset dx="4" dy="8"/>
<feGaussianBlur stdDeviation="2"/>
<feComposite in2="hardAlpha" operator="out"/>
<feColorMatrix type="matrix" values="0 0 0 0 0 0 0 0 0 0 0 0 0 0 0 0 0 0 0.5 0"/>
<feBlend mode="normal" in2="BackgroundImageFix" result="effect1_dropShadow_354_1139"/>
<feBlend mode="normal" in="SourceGraphic" in2="effect1_dropShadow_354_1139" result="shape"/>
</filter>
<filter id="filter2_d_354_1139" x="0" y="11.6052" width="40.3945" height="30.2227" filterUnits="userSpaceOnUse" color-interpolation-filters="sRGB">
<feFlood flood-opacity="0" result="BackgroundImageFix"/>
<feColorMatrix in="SourceAlpha" type="matrix" values="0 0 0 0 0 0 0 0 0 0 0 0 0 0 0 0 0 0 127 0" result="hardAlpha"/>
<feOffset dx="4" dy="8"/>
<feGaussianBlur stdDeviation="2"/>
<feComposite in2="hardAlpha" operator="out"/>
<feColorMatrix type="matrix" values="0 0 0 0 0 0 0 0 0 0 0 0 0 0 0 0 0 0 0.5 0"/>
<feBlend mode="normal" in2="BackgroundImageFix" result="effect1_dropShadow_354_1139"/>
<feBlend mode="normal" in="SourceGraphic" in2="effect1_dropShadow_354_1139" result="shape"/>
</filter>
<filter id="filter3_d_354_1139" x="5.80273" y="6.90796" width="40.3945" height="30.2227" filterUnits="userSpaceOnUse" color-interpolation-filters="sRGB">
<feFlood flood-opacity="0" result="BackgroundImageFix"/>
<feColorMatrix in="SourceAlpha" type="matrix" values="0 0 0 0 0 0 0 0 0 0 0 0 0 0 0 0 0 0 127 0" result="hardAlpha"/>
<feOffset dx="4" dy="8"/>
<feGaussianBlur stdDeviation="2"/>
<feComposite in2="hardAlpha" operator="out"/>
<feColorMatrix type="matrix" values="0 0 0 0 0 0 0 0 0 0 0 0 0 0 0 0 0 0 0.5 0"/>
<feBlend mode="normal" in2="BackgroundImageFix" result="effect1_dropShadow_354_1139"/>
<feBlend mode="normal" in="SourceGraphic" in2="effect1_dropShadow_354_1139" result="shape"/>
</filter>
</defs>
</svg>
