<svg width="52" height="47" viewBox="0 0 52 47" fill="none" xmlns="http://www.w3.org/2000/svg">
<g filter="url(#filter0_d_354_1152)">
<rect width="18.5842" height="18.5842" transform="matrix(0.87157 0.490272 -0.87157 0.490272 22 16.0264)" fill="#006363"/>
</g>
<g filter="url(#filter1_d_354_1152)">
<rect width="18.5842" height="18.5842" transform="matrix(0.87157 0.490272 -0.87157 0.490272 27.8027 12.158)" fill="#006363"/>
</g>
<g filter="url(#filter2_d_354_1152)">
<rect width="18.5842" height="18.5842" transform="matrix(0.87157 0.490272 -0.87157 0.490272 16.1973 11.6052)" fill="#006363"/>
</g>
<g filter="url(#filter3_d_354_1152)">
<rect width="18.5842" height="18.5842" transform="matrix(0.87157 0.490272 -0.87157 0.490272 22 6.90796)" fill="#006363"/>
</g>
<path d="M15.5748 4.7437C15.4537 2.48979 22.5174 0.552734 22.5174 0.552734C22.5174 0.552734 20.2125 3.1979 21.3425 4.7437C22.6016 6.4661 25.2396 5.50991 26.2201 7.36305C27.5301 9.83903 18.2806 13.8344 18.2806 13.8344C18.2806 13.8344 20.3279 10.1362 19.7403 8.6265C18.9119 6.49794 15.6953 6.98735 15.5748 4.7437Z" fill="#373737"/>
<path fill-rule="evenodd" clip-rule="evenodd" d="M14.6445 10.3978C14.6445 9.88483 15.0604 9.46899 15.5733 9.46899H29.7373C30.7696 9.46899 31.6104 10.3097 31.6104 11.342V14.1748C31.6104 15.2071 30.7696 16.0479 29.7373 16.0479H27.8333V18.8962C27.8333 19.8938 27.437 20.8506 26.7316 21.556C26.0261 22.2615 25.0693 22.6578 24.0717 22.6578H18.4061C17.4085 22.6578 16.4517 22.2615 15.7463 21.556C15.0408 20.8506 14.6445 19.8938 14.6445 18.8962V10.3978ZM27.8333 14.1903H29.7373C29.7395 14.1903 29.7401 14.1901 29.7408 14.1898C29.7421 14.1892 29.7447 14.1877 29.7475 14.185C29.7502 14.1822 29.7517 14.1797 29.7522 14.1783C29.7525 14.1776 29.7528 14.177 29.7528 14.1748V11.342C29.7528 11.3399 29.7525 11.3393 29.7522 11.3386C29.7517 11.3372 29.7502 11.3347 29.7475 11.3319C29.7447 11.3292 29.7421 11.3277 29.7408 11.3271C29.7401 11.3268 29.7395 11.3266 29.7373 11.3266H27.8333V14.1903ZM25.9757 11.3266V18.8962C25.9757 19.4012 25.7751 19.8854 25.4181 20.2425C25.061 20.5996 24.5767 20.8002 24.0717 20.8002H18.4061C17.9011 20.8002 17.4168 20.5996 17.0598 20.2425C16.7027 19.8854 16.5021 19.4012 16.5021 18.8962V11.3266H25.9757Z" fill="black"/>
<defs>
<filter id="filter0_d_354_1152" x="5.80273" y="16.0264" width="40.3945" height="30.2227" filterUnits="userSpaceOnUse" color-interpolation-filters="sRGB">
<feFlood flood-opacity="0" result="BackgroundImageFix"/>
<feColorMatrix in="SourceAlpha" type="matrix" values="0 0 0 0 0 0 0 0 0 0 0 0 0 0 0 0 0 0 127 0" result="hardAlpha"/>
<feOffset dx="4" dy="8"/>
<feGaussianBlur stdDeviation="2"/>
<feComposite in2="hardAlpha" operator="out"/>
<feColorMatrix type="matrix" values="0 0 0 0 0 0 0 0 0 0 0 0 0 0 0 0 0 0 0.5 0"/>
<feBlend mode="normal" in2="BackgroundImageFix" result="effect1_dropShadow_354_1152"/>
<feBlend mode="normal" in="SourceGraphic" in2="effect1_dropShadow_354_1152" result="shape"/>
</filter>
<filter id="filter1_d_354_1152" x="11.6055" y="12.158" width="40.3945" height="30.2227" filterUnits="userSpaceOnUse" color-interpolation-filters="sRGB">
<feFlood flood-opacity="0" result="BackgroundImageFix"/>
<feColorMatrix in="SourceAlpha" type="matrix" values="0 0 0 0 0 0 0 0 0 0 0 0 0 0 0 0 0 0 127 0" result="hardAlpha"/>
<feOffset dx="4" dy="8"/>
<feGaussianBlur stdDeviation="2"/>
<feComposite in2="hardAlpha" operator="out"/>
<feColorMatrix type="matrix" values="0 0 0 0 0 0 0 0 0 0 0 0 0 0 0 0 0 0 0.5 0"/>
<feBlend mode="normal" in2="BackgroundImageFix" result="effect1_dropShadow_354_1152"/>
<feBlend mode="normal" in="SourceGraphic" in2="effect1_dropShadow_354_1152" result="shape"/>
</filter>
<filter id="filter2_d_354_1152" x="0" y="11.6052" width="40.3945" height="30.2227" filterUnits="userSpaceOnUse" color-interpolation-filters="sRGB">
<feFlood flood-opacity="0" result="BackgroundImageFix"/>
<feColorMatrix in="SourceAlpha" type="matrix" values="0 0 0 0 0 0 0 0 0 0 0 0 0 0 0 0 0 0 127 0" result="hardAlpha"/>
<feOffset dx="4" dy="8"/>
<feGaussianBlur stdDeviation="2"/>
<feComposite in2="hardAlpha" operator="out"/>
<feColorMatrix type="matrix" values="0 0 0 0 0 0 0 0 0 0 0 0 0 0 0 0 0 0 0.5 0"/>
<feBlend mode="normal" in2="BackgroundImageFix" result="effect1_dropShadow_354_1152"/>
<feBlend mode="normal" in="SourceGraphic" in2="effect1_dropShadow_354_1152" result="shape"/>
</filter>
<filter id="filter3_d_354_1152" x="5.80273" y="6.90796" width="40.3945" height="30.2227" filterUnits="userSpaceOnUse" color-interpolation-filters="sRGB">
<feFlood flood-opacity="0" result="BackgroundImageFix"/>
<feColorMatrix in="SourceAlpha" type="matrix" values="0 0 0 0 0 0 0 0 0 0 0 0 0 0 0 0 0 0 127 0" result="hardAlpha"/>
<feOffset dx="4" dy="8"/>
<feGaussianBlur stdDeviation="2"/>
<feComposite in2="hardAlpha" operator="out"/>
<feColorMatrix type="matrix" values="0 0 0 0 0 0 0 0 0 0 0 0 0 0 0 0 0 0 0.5 0"/>
<feBlend mode="normal" in2="BackgroundImageFix" result="effect1_dropShadow_354_1152"/>
<feBlend mode="normal" in="SourceGraphic" in2="effect1_dropShadow_354_1152" result="shape"/>
</filter>
</defs>
</svg>
