<svg width="52" height="47" viewBox="0 0 52 47" fill="none" xmlns="http://www.w3.org/2000/svg">
<g filter="url(#filter0_d_354_1176)">
<rect width="18.5842" height="18.5842" transform="matrix(0.87157 0.490272 -0.87157 0.490272 22 16.0264)" fill="#006363"/>
</g>
<g filter="url(#filter1_d_354_1176)">
<rect width="18.5842" height="18.5842" transform="matrix(0.87157 0.490272 -0.87157 0.490272 27.8027 12.158)" fill="#006363"/>
</g>
<g filter="url(#filter2_d_354_1176)">
<rect width="18.5842" height="18.5842" transform="matrix(0.87157 0.490272 -0.87157 0.490272 16.1973 11.6052)" fill="#006363"/>
</g>
<g filter="url(#filter3_d_354_1176)">
<rect width="18.5842" height="18.5842" transform="matrix(0.87157 0.490272 -0.87157 0.490272 22 6.90796)" fill="#006363"/>
</g>
<path d="M33.3583 3.56707C33.3583 2.76762 33.0407 2.00091 32.4754 1.43561C31.9101 0.870315 31.1434 0.552734 30.3439 0.552734H16.277C15.4776 0.552734 14.7109 0.870315 14.1456 1.43561C13.5803 2.00091 13.2627 2.76762 13.2627 3.56707V7.58618C13.2671 8.32977 13.5463 9.04548 14.0464 9.59574C13.5463 10.146 13.2671 10.8617 13.2627 11.6053V15.6244C13.2627 16.4239 13.5803 17.1906 14.1456 17.7559C14.7109 18.3212 15.4776 18.6387 16.277 18.6387H22.3057V20.6483H14.2675C14.001 20.6483 13.7454 20.7542 13.557 20.9426C13.3686 21.131 13.2627 21.3866 13.2627 21.6531C13.2627 21.9196 13.3686 22.1751 13.557 22.3636C13.7454 22.552 14.001 22.6579 14.2675 22.6579H32.3535C32.62 22.6579 32.8755 22.552 33.064 22.3636C33.2524 22.1751 33.3583 21.9196 33.3583 21.6531C33.3583 21.3866 33.2524 21.131 33.064 20.9426C32.8755 20.7542 32.62 20.6483 32.3535 20.6483H24.3153V18.6387H30.3439C31.1434 18.6387 31.9101 18.3212 32.4754 17.7559C33.0407 17.1906 33.3583 16.4239 33.3583 15.6244V11.6053C33.3538 10.8617 33.0747 10.146 32.5745 9.59574C33.0747 9.04548 33.3538 8.32977 33.3583 7.58618V3.56707ZM31.3487 15.6244C31.3487 15.8909 31.2428 16.1465 31.0544 16.3349C30.866 16.5233 30.6104 16.6292 30.3439 16.6292H16.277C16.0105 16.6292 15.755 16.5233 15.5665 16.3349C15.3781 16.1465 15.2723 15.8909 15.2723 15.6244V11.6053C15.2723 11.3388 15.3781 11.0832 15.5665 10.8948C15.755 10.7064 16.0105 10.6005 16.277 10.6005H30.3439C30.6104 10.6005 30.866 10.7064 31.0544 10.8948C31.2428 11.0832 31.3487 11.3388 31.3487 11.6053V15.6244ZM31.3487 7.58618C31.3487 7.85267 31.2428 8.10824 31.0544 8.29667C30.866 8.4851 30.6104 8.59096 30.3439 8.59096H16.277C16.0105 8.59096 15.755 8.4851 15.5665 8.29667C15.3781 8.10824 15.2723 7.85267 15.2723 7.58618V3.56707C15.2723 3.30059 15.3781 3.04502 15.5665 2.85658C15.755 2.66815 16.0105 2.56229 16.277 2.56229H30.3439C30.6104 2.56229 30.866 2.66815 31.0544 2.85658C31.2428 3.04502 31.3487 3.30059 31.3487 3.56707V7.58618Z" fill="black"/>
<path d="M21.5965 12.8798C21.7618 12.7694 21.956 12.7104 22.1548 12.7104C22.4212 12.7104 22.6768 12.8163 22.8652 13.0047C23.0537 13.1932 23.1595 13.4487 23.1595 13.7152C23.1595 13.914 23.1006 14.1082 22.9902 14.2735C22.8798 14.4387 22.7229 14.5675 22.5393 14.6435C22.3557 14.7196 22.1536 14.7395 21.9587 14.7007C21.7638 14.6619 21.5848 14.5662 21.4443 14.4257C21.3037 14.2852 21.208 14.1062 21.1693 13.9113C21.1305 13.7163 21.1504 13.5143 21.2265 13.3307C21.3025 13.1471 21.4313 12.9902 21.5965 12.8798Z" fill="#373737"/>
<path d="M17.5774 12.8798C17.7426 12.7694 17.9369 12.7104 18.1356 12.7104C18.4021 12.7104 18.6577 12.8163 18.8461 13.0047C19.0346 13.1932 19.1404 13.4487 19.1404 13.7152C19.1404 13.914 19.0815 14.1082 18.9711 14.2735C18.8607 14.4387 18.7037 14.5675 18.5202 14.6435C18.3366 14.7196 18.1345 14.7395 17.9396 14.7007C17.7447 14.6619 17.5657 14.5662 17.4252 14.4257C17.2846 14.2852 17.1889 14.1062 17.1502 13.9113C17.1114 13.7163 17.1313 13.5143 17.2073 13.3307C17.2834 13.1471 17.4122 12.9902 17.5774 12.8798Z" fill="#373737"/>
<path d="M21.5965 4.86685C21.7618 4.75644 21.956 4.69751 22.1548 4.69751C22.4212 4.69751 22.6768 4.80337 22.8652 4.9918C23.0537 5.18024 23.1595 5.4358 23.1595 5.70229C23.1595 5.90101 23.1006 6.09528 22.9902 6.26051C22.8798 6.42575 22.7229 6.55453 22.5393 6.63058C22.3557 6.70663 22.1536 6.72653 21.9587 6.68776C21.7638 6.64899 21.5848 6.55329 21.4443 6.41277C21.3037 6.27225 21.208 6.09322 21.1693 5.89831C21.1305 5.7034 21.1504 5.50138 21.2265 5.31778C21.3025 5.13418 21.4313 4.97725 21.5965 4.86685Z" fill="#373737"/>
<path d="M17.5774 4.86685C17.7426 4.75644 17.9369 4.69751 18.1356 4.69751C18.4021 4.69751 18.6577 4.80337 18.8461 4.9918C19.0346 5.18024 19.1404 5.4358 19.1404 5.70229C19.1404 5.90101 19.0815 6.09528 18.9711 6.26051C18.8607 6.42575 18.7037 6.55453 18.5202 6.63058C18.3366 6.70663 18.1345 6.72653 17.9396 6.68776C17.7447 6.64899 17.5657 6.55329 17.4252 6.41277C17.2846 6.27225 17.1889 6.09322 17.1502 5.89831C17.1114 5.7034 17.1313 5.50138 17.2073 5.31778C17.2834 5.13418 17.4122 4.97725 17.5774 4.86685Z" fill="#373737"/>
<path d="M32.4754 1.43561C33.0407 2.00091 33.3583 2.76762 33.3583 3.56707V7.58618H31.3487V3.56707C31.3487 3.30059 31.2428 3.04502 31.0544 2.85658C30.866 2.66815 30.6104 2.56229 30.3439 2.56229H16.277C16.0105 2.56229 15.755 2.66815 15.5665 2.85658C15.3781 3.04502 15.2723 3.30059 15.2723 3.56707H13.2627C13.2627 2.76762 13.5803 2.00091 14.1456 1.43561C14.7109 0.870315 15.4776 0.552734 16.277 0.552734H30.3439C31.1434 0.552734 31.9101 0.870315 32.4754 1.43561Z" fill="#373737"/>
<path d="M32.4754 10.0013C33.0407 10.5666 33.3583 11.3333 33.3583 12.1327V16.1519H31.3487V12.1327C31.3487 11.8663 31.2428 11.6107 31.0544 11.4223C30.866 11.2338 30.6104 11.128 30.3439 11.128H16.277C16.0105 11.128 15.755 11.2338 15.5665 11.4223C15.3781 11.6107 15.2723 11.8663 15.2723 12.1327H13.2627C13.2627 11.3333 13.5803 10.5666 14.1456 10.0013C14.7109 9.43599 15.4776 9.11841 16.277 9.11841H30.3439C31.1434 9.11841 31.9101 9.43599 32.4754 10.0013Z" fill="#373737"/>
<defs>
<filter id="filter0_d_354_1176" x="5.80273" y="16.0264" width="40.3945" height="30.2227" filterUnits="userSpaceOnUse" color-interpolation-filters="sRGB">
<feFlood flood-opacity="0" result="BackgroundImageFix"/>
<feColorMatrix in="SourceAlpha" type="matrix" values="0 0 0 0 0 0 0 0 0 0 0 0 0 0 0 0 0 0 127 0" result="hardAlpha"/>
<feOffset dx="4" dy="8"/>
<feGaussianBlur stdDeviation="2"/>
<feComposite in2="hardAlpha" operator="out"/>
<feColorMatrix type="matrix" values="0 0 0 0 0 0 0 0 0 0 0 0 0 0 0 0 0 0 0.5 0"/>
<feBlend mode="normal" in2="BackgroundImageFix" result="effect1_dropShadow_354_1176"/>
<feBlend mode="normal" in="SourceGraphic" in2="effect1_dropShadow_354_1176" result="shape"/>
</filter>
<filter id="filter1_d_354_1176" x="11.6055" y="12.158" width="40.3945" height="30.2227" filterUnits="userSpaceOnUse" color-interpolation-filters="sRGB">
<feFlood flood-opacity="0" result="BackgroundImageFix"/>
<feColorMatrix in="SourceAlpha" type="matrix" values="0 0 0 0 0 0 0 0 0 0 0 0 0 0 0 0 0 0 127 0" result="hardAlpha"/>
<feOffset dx="4" dy="8"/>
<feGaussianBlur stdDeviation="2"/>
<feComposite in2="hardAlpha" operator="out"/>
<feColorMatrix type="matrix" values="0 0 0 0 0 0 0 0 0 0 0 0 0 0 0 0 0 0 0.5 0"/>
<feBlend mode="normal" in2="BackgroundImageFix" result="effect1_dropShadow_354_1176"/>
<feBlend mode="normal" in="SourceGraphic" in2="effect1_dropShadow_354_1176" result="shape"/>
</filter>
<filter id="filter2_d_354_1176" x="0" y="11.6052" width="40.3945" height="30.2227" filterUnits="userSpaceOnUse" color-interpolation-filters="sRGB">
<feFlood flood-opacity="0" result="BackgroundImageFix"/>
<feColorMatrix in="SourceAlpha" type="matrix" values="0 0 0 0 0 0 0 0 0 0 0 0 0 0 0 0 0 0 127 0" result="hardAlpha"/>
<feOffset dx="4" dy="8"/>
<feGaussianBlur stdDeviation="2"/>
<feComposite in2="hardAlpha" operator="out"/>
<feColorMatrix type="matrix" values="0 0 0 0 0 0 0 0 0 0 0 0 0 0 0 0 0 0 0.5 0"/>
<feBlend mode="normal" in2="BackgroundImageFix" result="effect1_dropShadow_354_1176"/>
<feBlend mode="normal" in="SourceGraphic" in2="effect1_dropShadow_354_1176" result="shape"/>
</filter>
<filter id="filter3_d_354_1176" x="5.80273" y="6.90796" width="40.3945" height="30.2227" filterUnits="userSpaceOnUse" color-interpolation-filters="sRGB">
<feFlood flood-opacity="0" result="BackgroundImageFix"/>
<feColorMatrix in="SourceAlpha" type="matrix" values="0 0 0 0 0 0 0 0 0 0 0 0 0 0 0 0 0 0 127 0" result="hardAlpha"/>
<feOffset dx="4" dy="8"/>
<feGaussianBlur stdDeviation="2"/>
<feComposite in2="hardAlpha" operator="out"/>
<feColorMatrix type="matrix" values="0 0 0 0 0 0 0 0 0 0 0 0 0 0 0 0 0 0 0.5 0"/>
<feBlend mode="normal" in2="BackgroundImageFix" result="effect1_dropShadow_354_1176"/>
<feBlend mode="normal" in="SourceGraphic" in2="effect1_dropShadow_354_1176" result="shape"/>
</filter>
</defs>
</svg>
