<svg width="44" height="44" viewBox="0 0 44 44" fill="none" xmlns="http://www.w3.org/2000/svg">
<path fill-rule="evenodd" clip-rule="evenodd" d="M4.48474 14.027C4.25835 14.027 4.07483 14.2105 4.07483 14.4369V29.824C4.07483 30.0504 4.25835 30.2339 4.48474 30.2339H35.259C35.4854 30.2339 35.6689 30.0504 35.6689 29.824V14.4369C35.6689 14.2105 35.4854 14.027 35.259 14.027H4.48474ZM1.04785 14.4369C1.04785 12.5387 2.5866 11 4.48474 11H35.259C37.1572 11 38.6959 12.5387 38.6959 14.4369V29.824C38.6959 31.7222 37.1572 33.2609 35.259 33.2609H4.48474C2.5866 33.2609 1.04785 31.7222 1.04785 29.824V14.4369Z" fill="black"/>
<path d="M39.1058 18.2837H41.0292C41.5393 18.2837 42.0286 18.4863 42.3893 18.847C42.75 19.2077 42.9526 19.6969 42.9526 20.2071V24.0539C42.9526 24.564 42.75 25.0532 42.3893 25.4139C42.0286 25.7746 41.5393 25.9772 41.0292 25.9772H39.1058V18.2837Z" fill="black"/>
<path fill-rule="evenodd" clip-rule="evenodd" d="M11.2166 17.7319C12.0525 17.7319 12.7301 18.4095 12.7301 19.2454V25.0155C12.7301 25.8514 12.0525 26.529 11.2166 26.529C10.3807 26.529 9.70312 25.8514 9.70312 25.0155V19.2454C9.70312 18.4095 10.3807 17.7319 11.2166 17.7319ZM16.9868 17.7319C17.8227 17.7319 18.5003 18.4095 18.5003 19.2454V25.0155C18.5003 25.8514 17.8227 26.529 16.9868 26.529C16.1509 26.529 15.4733 25.8514 15.4733 25.0155V19.2454C15.4733 18.4095 16.1509 17.7319 16.9868 17.7319ZM22.757 17.7319C23.5929 17.7319 24.2705 18.4095 24.2705 19.2454V25.0155C24.2705 25.8514 23.5929 26.529 22.757 26.529C21.9211 26.529 21.2435 25.8514 21.2435 25.0155V19.2454C21.2435 18.4095 21.9211 17.7319 22.757 17.7319ZM28.5272 20.617C29.363 20.617 30.0406 21.2946 30.0406 22.1305V25.0155C30.0406 25.8514 29.363 26.529 28.5272 26.529C27.6913 26.529 27.0137 25.8514 27.0137 25.0155V22.1305C27.0137 21.2946 27.6913 20.617 28.5272 20.617Z" fill="black"/>
</svg>
