<svg width="44" height="44" viewBox="0 0 44 44" fill="none" xmlns="http://www.w3.org/2000/svg">
<path fill-rule="evenodd" clip-rule="evenodd" d="M34.8895 3.41479C34.4065 3.41479 33.9432 3.60667 33.6017 3.94823C33.2601 4.28978 33.0682 4.75303 33.0682 5.23605C33.0682 5.82667 33.4709 6.50313 34.1032 7.14534C34.3849 7.43136 34.6704 7.66816 34.8923 7.83726C35.1135 7.66828 35.3978 7.43187 35.6781 7.14639C36.3085 6.50458 36.7108 5.82781 36.7108 5.23605C36.7108 4.75303 36.5189 4.28978 36.1773 3.94823C35.8358 3.60667 35.3725 3.41479 34.8895 3.41479ZM34.6351 9.10386C34.0078 10.1075 34.0075 10.1074 34.0072 10.1072L34.0051 10.1058L34.0013 10.1035L33.9909 10.0969C33.9826 10.0916 33.9717 10.0846 33.9584 10.0759C33.9318 10.0586 33.8955 10.0346 33.8508 10.0042C33.7615 9.94341 33.6382 9.85658 33.492 9.74619C33.2017 9.52692 32.8112 9.20707 32.4165 8.80616C31.6736 8.05166 30.701 6.79422 30.701 5.23605C30.701 4.12521 31.1423 3.05986 31.9278 2.27437C32.7133 1.48889 33.7786 1.04761 34.8895 1.04761C36.0003 1.04761 37.0657 1.48889 37.8512 2.27437C38.6367 3.05986 39.0779 4.12521 39.0779 5.23605C39.0779 6.79308 38.1084 8.05022 37.367 8.80511C36.9732 9.20609 36.5836 9.526 36.2939 9.74533C36.1481 9.85575 36.025 9.9426 35.9359 10.0034C35.8913 10.0338 35.855 10.0579 35.8285 10.0752C35.8249 10.0776 35.8214 10.0798 35.8181 10.0819C35.8095 10.0876 35.8021 10.0923 35.7961 10.0961L35.7857 10.1028L35.7819 10.1051L35.7804 10.1061L35.7798 10.1065C35.7795 10.1067 35.7792 10.1068 35.1508 9.10386L35.7792 10.1068L35.4909 10.2875H34.2956L34.0078 10.1075L34.6351 9.10386ZM16.5191 9.63929H26.5149L26.87 10.0734C27.1515 10.4174 27.3982 10.7884 27.6064 11.1811L27.6088 11.1857L27.6112 11.1902C28.4729 12.8496 28.9947 14.66 29.1507 16.5154H34.0334V18.8826H18.2381V17.699C18.2381 15.6385 17.7001 13.635 16.6749 11.8396L16.5191 11.5668V9.63929ZM26.7735 16.5154C26.6244 15.0422 26.198 13.6067 25.5129 12.286C25.4623 12.1908 25.4082 12.0976 25.3507 12.0065H19.4063C20.0357 13.4362 20.4248 14.9554 20.5558 16.5154H26.7735ZM30.2569 12.0197C31.4704 11.6575 33.0355 11.3583 34.8929 11.3583C37.201 11.3583 39.0572 11.8201 40.347 12.2891C40.9919 12.5236 41.4962 12.7603 41.8465 12.943C42.0217 13.0344 42.1586 13.1125 42.2556 13.1702C42.3041 13.1991 42.3427 13.223 42.371 13.2409C42.3793 13.2461 42.3866 13.2508 42.3931 13.255C42.3979 13.258 42.4022 13.2608 42.406 13.2633L42.4177 13.2709L42.4221 13.2738L42.4248 13.2756C42.4252 13.2759 42.4256 13.2761 41.769 14.2609L42.4256 13.2761L42.9526 13.6275V18.5585H40.5854V14.9575C40.3254 14.8293 39.974 14.6723 39.5381 14.5138C38.4642 14.1233 36.8825 13.7255 34.8929 13.7255C33.2916 13.7255 31.955 13.9833 30.9339 14.288L30.2569 12.0197ZM27.1573 23.1801V20.813H42.6285V23.1801H27.1573ZM19.4183 23.1836C18.9352 23.1836 18.472 23.3755 18.1304 23.717C17.7889 24.0586 17.597 24.5218 17.597 25.0048C17.597 25.5955 17.9997 26.2719 18.632 26.9141C18.9136 27.2002 19.1992 27.4369 19.4211 27.606C19.6422 27.4371 19.9265 27.2007 20.2069 26.9152C20.8373 26.2734 21.2395 25.5966 21.2395 25.0048C21.2395 24.5218 21.0476 24.0586 20.7061 23.717C20.3645 23.3755 19.9013 23.1836 19.4183 23.1836ZM19.1638 28.8726C18.5365 29.8763 18.5363 29.8762 18.536 29.876L18.5338 29.8746L18.5301 29.8723L18.5196 29.8656C18.5152 29.8628 18.5101 29.8596 18.5043 29.8558C18.4991 29.8525 18.4934 29.8488 18.4872 29.8447C18.4606 29.8274 18.4243 29.8034 18.3796 29.773C18.2903 29.7122 18.167 29.6254 18.0208 29.515C17.7304 29.2957 17.34 28.9759 16.9452 28.575C16.2023 27.8205 15.2298 26.563 15.2298 25.0048C15.2298 23.894 15.6711 22.8286 16.4566 22.0432C17.2421 21.2577 18.3074 20.8164 19.4183 20.8164C20.5291 20.8164 21.5944 21.2577 22.3799 22.0432C23.1654 22.8286 23.6067 23.894 23.6067 25.0048C23.6067 26.5619 22.6372 27.819 21.8958 28.5739C21.5019 28.9749 21.1124 29.2948 20.8227 29.5141C20.6768 29.6245 20.5537 29.7114 20.4647 29.7722C20.4201 29.8026 20.3838 29.8267 20.3573 29.844C20.344 29.8526 20.3331 29.8596 20.3249 29.8649L20.3144 29.8716L20.3107 29.8739L20.3086 29.8753C20.3083 29.8754 20.308 29.8756 19.6795 28.8726L20.308 29.8756L20.0197 30.0562H18.8244L18.5365 29.8763L19.1638 28.8726ZM1.04785 29.4081H11.0437L11.3989 29.8422C11.6803 30.1862 11.9269 30.5572 12.1352 30.9498L12.1376 30.9544L12.14 30.959C13.0017 32.6183 13.5236 34.4287 13.6795 36.2842H18.5622V38.6514H2.76688V37.4678C2.76688 35.4073 2.22889 33.4037 1.20363 31.6084L1.04785 31.3356V29.4081ZM11.3023 36.2842C11.1533 34.811 10.7268 33.3755 10.0417 32.0548C9.99104 31.9596 9.93692 31.8663 9.87944 31.7753H3.93512C4.56445 33.2049 4.95358 34.7242 5.08453 36.2842H11.3023ZM14.7872 31.7863C15.9996 31.4263 17.5643 31.1271 19.4217 31.1271C21.7297 31.1271 23.586 31.5889 24.8758 32.0579C25.5207 32.2924 26.025 32.529 26.3752 32.7118C26.5504 32.8032 26.6874 32.8813 26.7844 32.939C26.8329 32.9679 26.8714 32.9918 26.8998 33.0097C26.914 33.0187 26.9257 33.0262 26.9348 33.0321L26.9465 33.0397L26.9509 33.0426L26.9536 33.0444C26.954 33.0447 26.9543 33.0449 26.2978 34.0297L26.9543 33.0449L27.4814 33.3963V38.3273H25.1142V34.7263C24.8542 34.5981 24.5027 34.441 24.0668 34.2825C22.993 33.8921 21.4112 33.4943 19.4217 33.4943C17.8204 33.4943 16.4833 33.752 15.461 34.0556L14.7872 31.7863ZM1.37193 40.5817H27.1573V42.9489H1.37193V40.5817Z" fill="black"/>
</svg>
