<svg width="44" height="44" viewBox="0 0 44 44" fill="none" xmlns="http://www.w3.org/2000/svg">
<path fill-rule="evenodd" clip-rule="evenodd" d="M29.2696 28.2828V20.8107C29.2696 19.6774 30.1883 18.7588 31.3215 18.7588C32.4547 18.7588 33.3734 19.6774 33.3734 20.8107V28.2828H40.8455C41.9788 28.2828 42.8974 29.2015 42.8974 30.3347C42.8974 31.4679 41.9787 32.3866 40.8455 32.3866H33.3734V39.8587C33.3734 40.9919 32.4547 41.9106 31.3215 41.9106C30.1883 41.9106 29.2696 40.9919 29.2696 39.8587V32.3866H21.7975C20.6643 32.3866 19.7456 31.4679 19.7456 30.3347C19.7456 29.2015 20.6643 28.2828 21.7975 28.2828H29.2696Z" fill="#898989"/>
<path fill-rule="evenodd" clip-rule="evenodd" d="M7.82227 24.1994C5.64859 24.1994 3.88647 25.9615 3.88647 28.1352V36.5856C3.88647 37.2249 3.3682 37.7432 2.72888 37.7432C2.08956 37.7432 1.57129 37.2249 1.57129 36.5856V28.1352C1.57129 24.6829 4.36995 21.8842 7.82227 21.8842L28.0801 21.8842C31.5324 21.8842 34.3311 24.6829 34.3311 28.1352V36.5856C34.3311 37.2249 33.8128 37.7432 33.1735 37.7432C32.5342 37.7432 32.0159 37.2249 32.0159 36.5856V28.1352C32.0159 25.9615 30.2538 24.1994 28.0801 24.1994L7.82227 24.1994Z" fill="black"/>
<path fill-rule="evenodd" clip-rule="evenodd" d="M18.0509 18.3245C22.1824 18.3245 25.5317 14.9752 25.5317 10.8436C25.5317 6.71208 22.1824 3.36279 18.0509 3.36279C13.9193 3.36279 10.57 6.71208 10.57 10.8436C10.57 14.9752 13.9193 18.3245 18.0509 18.3245ZM18.0509 20.6397C23.4611 20.6397 27.8469 16.2538 27.8469 10.8436C27.8469 5.43344 23.4611 1.04761 18.0509 1.04761C12.6407 1.04761 8.25485 5.43344 8.25485 10.8436C8.25485 16.2538 12.6407 20.6397 18.0509 20.6397Z" fill="black"/>
<path fill-rule="evenodd" clip-rule="evenodd" d="M29.5848 19.8006C28.7073 19.8006 27.996 20.5119 27.996 21.3894V29.3246H20.0608C19.1833 29.3246 18.472 30.036 18.472 30.9134C18.472 31.7909 19.1833 32.5023 20.0608 32.5023H27.996V40.4375C27.996 41.315 28.7073 42.0263 29.5848 42.0263V42.9524C28.1959 42.9524 27.0699 41.8264 27.0699 40.4375V33.4284H20.0608C18.6719 33.4284 17.5459 32.3024 17.5459 30.9134C17.5459 29.5245 18.6719 28.3985 20.0608 28.3985H27.0699V21.3894C27.0699 20.0005 28.1959 18.8745 29.5848 18.8745C30.9738 18.8745 32.0997 20.0005 32.0997 21.3894V28.3985H39.1089C40.4978 28.3985 41.6238 29.5245 41.6238 30.9134H40.6977C40.6977 30.036 39.9864 29.3246 39.1089 29.3246H31.1737V21.3894C31.1737 20.5119 30.4623 19.8006 29.5848 19.8006Z" fill="black"/>
</svg>
