<svg width="44" height="44" viewBox="0 0 44 44" fill="none" xmlns="http://www.w3.org/2000/svg">
<path d="M16.9972 41.4177C20.6609 39.9769 19.8582 36.0044 18.0057 33.4933C16.1739 30.9205 13.6422 29.1504 11.0899 27.442C9.26885 26.2942 7.64289 24.8628 6.27353 23.2019C5.69721 22.5227 4.52399 21.2672 5.7178 21.0202C6.93218 20.7732 9.03163 21.967 10.1019 22.4198C11.975 23.2019 13.8274 24.1076 15.5564 25.1779L17.6352 21.6788C14.4243 19.5588 10.3078 17.6858 6.47936 17.13C4.29758 16.8007 1.99231 17.2535 1.25133 19.6205C0.592676 21.6582 1.6424 23.7165 2.8362 25.322C5.65605 29.0886 10.0402 30.8999 13.3129 34.152C14.0127 34.8312 14.8566 35.634 15.2682 36.5808C15.7005 37.4864 15.5975 37.5482 14.6302 37.5482C12.0779 37.5482 8.88755 35.5516 6.80869 34.2343L4.72982 37.7334C7.87899 39.6682 13.1482 42.6939 16.9972 41.4177ZM35.9539 13.5898L24.2835 25.2602H19.57V20.5468L31.2405 8.85573L35.9539 13.5898ZM42.9521 11.9843C42.9315 12.6018 42.2934 13.2399 41.6348 13.8779L36.4479 19.0854L34.6572 17.2947L40.0088 11.9637L38.7944 10.7493L37.4153 12.1284L32.7019 7.41493L37.1272 2.98963C37.6211 2.49564 38.4239 2.49564 38.8973 2.98963L41.8406 5.93297C42.3346 6.38579 42.3346 7.20911 41.8406 7.70309C41.4084 8.13533 40.9967 8.54699 40.9967 8.95864C40.9556 9.3703 41.3672 9.82312 41.7789 10.173C42.3758 10.7905 42.9727 11.3668 42.9521 11.9843Z" fill="black"/>
</svg>
