<svg width="44" height="44" viewBox="0 0 44 44" fill="none" xmlns="http://www.w3.org/2000/svg">
<path fill-rule="evenodd" clip-rule="evenodd" d="M26.4951 36.84L37.13 19.914C37.6915 19.0204 38.8588 18.7301 39.7734 19.2567V19.2567C40.7391 19.8127 41.0494 21.0599 40.4568 22.0037L27.3011 42.9525L17.7299 35.6397C16.8027 34.9313 16.5805 33.6268 17.2209 32.6514V32.6514C17.9345 31.5643 19.4245 31.3186 20.4494 32.119L26.4951 36.84Z" fill="#898989"/>
<path fill-rule="evenodd" clip-rule="evenodd" d="M8.9008 26.2535C6.53426 26.2535 4.6158 28.1719 4.6158 30.5385V39.7386C4.6158 40.4347 4.05155 40.9989 3.35551 40.9989C2.65947 40.9989 2.09521 40.4347 2.09521 39.7386V30.5385C2.09521 26.7799 5.14218 23.7329 8.9008 23.7329L30.9559 23.7329C34.7146 23.7329 37.7615 26.7799 37.7615 30.5385V39.7386C37.7615 40.4347 37.1973 40.9989 36.5012 40.9989C35.8052 40.9989 35.2409 40.4347 35.2409 39.7386V30.5385C35.2409 28.1719 33.3225 26.2535 30.9559 26.2535L8.9008 26.2535Z" fill="black"/>
<path fill-rule="evenodd" clip-rule="evenodd" d="M20.0369 19.8573C24.535 19.8573 28.1814 16.2109 28.1814 11.7128C28.1814 7.21464 24.535 3.56819 20.0369 3.56819C15.5388 3.56819 11.8923 7.21464 11.8923 11.7128C11.8923 16.2109 15.5388 19.8573 20.0369 19.8573ZM20.0369 22.3779C25.9271 22.3779 30.702 17.6029 30.702 11.7128C30.702 5.82255 25.9271 1.04761 20.0369 1.04761C14.1467 1.04761 9.37175 5.82255 9.37175 11.7128C9.37175 17.6029 14.1467 22.3779 20.0369 22.3779Z" fill="black"/>
<path fill-rule="evenodd" clip-rule="evenodd" d="M38.0092 20.4496C37.3294 20.0582 36.4618 20.274 36.0445 20.9381L24.7904 38.8498L18.0791 33.609C17.4065 33.0837 16.4289 33.2434 15.9583 33.9553C15.5489 34.5748 15.6685 35.4028 16.2366 35.8811L20.3231 39.3215L19.6738 40.0928L15.5872 36.6524C14.6277 35.8445 14.4256 34.4459 15.1172 33.3994C15.9121 32.1968 17.5634 31.9271 18.6996 32.8143L24.5308 37.3678L35.1908 20.4017C35.8963 19.2789 37.363 18.9142 38.5122 19.5758C39.7259 20.2746 40.1157 21.8421 39.3706 23.028L33.1542 32.9217L32.3005 32.3853L38.5169 22.4916C38.9576 21.7901 38.7271 20.8629 38.0092 20.4496Z" fill="black"/>
</svg>
