<svg width="44" height="44" viewBox="0 0 44 44" fill="none" xmlns="http://www.w3.org/2000/svg">
<path d="M42.8883 35.4514L40.8931 27.7497L34.608 4.62472C34.4722 4.11461 34.1398 3.67912 33.6835 3.4136C33.2273 3.14808 32.6844 3.07418 32.1738 3.20809L24.4522 5.20334C24.2679 4.99912 24.0434 4.8352 23.7927 4.72189C23.5421 4.60859 23.2707 4.54833 22.9956 4.54491H3.04311C2.51393 4.54491 2.00643 4.75512 1.63225 5.12931C1.25807 5.50349 1.04785 6.01099 1.04785 6.54016V38.4642C1.04785 38.9934 1.25807 39.5009 1.63225 39.8751C2.00643 40.2493 2.51393 40.4595 3.04311 40.4595H22.9956C23.5248 40.4595 24.0323 40.2493 24.4065 39.8751C24.7807 39.5009 24.9909 38.9934 24.9909 38.4642V22.5022L29.3805 38.9032C29.4974 39.3385 29.7582 39.7214 30.1205 39.9895C30.4829 40.2576 30.9253 40.3951 31.3757 40.3797C31.5481 40.3993 31.7221 40.3993 31.8945 40.3797L41.5316 37.8058C41.7863 37.7377 42.0251 37.6197 42.234 37.4588C42.4429 37.2978 42.6178 37.097 42.7487 36.868C42.9591 36.4266 43.0085 35.9254 42.8883 35.4514ZM10.9643 36.5488H4.9785V32.5583H10.9643V36.5488ZM10.9643 28.5678H4.9785V16.5962H10.9643V28.5678ZM10.9643 12.6057H4.9785V8.61523H10.9643V12.6057ZM20.9405 36.5488H14.9548V32.5583H20.9405V36.5488ZM20.9405 28.5678H14.9548V16.5962H20.9405V28.5678ZM20.9405 12.6057H14.9548V8.61523H20.9405V12.6057ZM25.4299 9.13399L31.2161 7.57769L32.2536 11.4285L26.4674 12.9848L25.4299 9.13399ZM30.5976 28.4081L27.5049 16.8357L33.2912 15.2794L36.3838 26.8519L30.5976 28.4081ZM32.5928 36.1098L31.5553 32.259L37.3415 30.7027L38.3791 34.5535L32.5928 36.1098Z" fill="black"/>
</svg>
