<svg width="345" height="502" viewBox="0 0 345 502" fill="none" xmlns="http://www.w3.org/2000/svg">
<path d="M269.071 26.8475C289.686 14.7807 300.088 0.081436 312.418 0.624992L318.033 14.0778C320.693 18.8811 313.288 62.3541 296.866 115.823L282.832 155.689C282.832 155.689 254 207.601 242.351 226.469C215.901 269.309 188.843 319.61 176.288 342.43C162.697 368.618 143.785 431.997 215.491 462.554L232.82 472.766C75.3206 472.766 63.2086 351.717 112.52 235.757C116.131 227.264 119.828 219.038 123.602 211.122C123.602 211.122 115.755 201.642 94.8961 206.784C57.8221 215.921 33.5412 204.434 25.9697 193.729C80.7976 186.941 71.6596 181.98 94.8961 173.104C131.681 159.051 147.733 166.679 147.733 166.679C161.724 144.375 176.415 126.826 191.443 115.823C215.05 98.5378 209.552 96.1075 225.494 75.7668C241.435 55.4261 248.457 38.9143 269.071 26.8475Z" fill="#006363"/>
<path d="M297.138 484.465C306.5 494.328 344.5 499.417 344.5 499.417C344.5 499.417 311.013 509.384 258.821 487.703L217.524 470.548C145.818 439.991 155.073 379.976 168.664 353.787C182.015 329.521 188.588 315.429 209.106 279.825L243.468 225.103C231.872 226.651 204.645 244.672 184.359 256.977C145.453 280.576 114.785 289.5 114.785 289.5C81.4109 298.535 53.4204 291.069 35.7321 283.241C13.8682 273.565 12.4668 271.826 0.846867 257.407L0.5 256.977C15.2195 259.522 54.7951 275.375 93.3847 256.977C126.768 241.062 135.978 221.544 158.398 208.41C180.819 195.275 251.719 208.41 251.719 208.41C259.606 194.857 265.079 185.541 266.308 183.584C282.149 158.36 288.876 140.143 291.514 131.333C291.916 129.417 292.411 127.447 293.048 125.371C293.048 125.371 292.683 127.428 291.514 131.333C288.452 145.892 290.678 157.353 275.514 188.924C254.39 232.902 217.524 292.276 217.524 292.276C217.524 292.276 211.714 300.713 180.494 353.787C150.971 407.34 194.98 446.62 208.115 453.122C217.198 457.577 232.276 464.83 234.262 459.624C248.115 423.307 240.154 406.886 243.468 389.548C245.738 377.674 257.861 368.766 263.159 365.276C263.531 364.762 263.979 364.374 264.512 364.136C266.589 363.21 265.597 363.669 263.159 365.276C259.851 369.844 262.537 384.367 264.512 391.764C266.709 398.035 271.104 414.925 271.104 432.325C271.104 449.725 262.816 460.986 258.821 464.121C258.821 464.121 281.355 467.838 297.138 484.465Z" fill="#191919"/>
</svg>
