<svg width="360" height="350" viewBox="0 0 360 350" fill="none" xmlns="http://www.w3.org/2000/svg">
<g filter="url(#filter0_d_360_1295)">
<path d="M30.1084 183.04L173.884 100.03L317.66 183.04L173.884 266.049L30.1084 183.04Z" fill="#001B19"/>
<path d="M173.865 266.085L317.676 183.059V188.914L173.865 272.122L30.2202 188.914V183.04L173.865 266.085Z" fill="#000A0D"/>
</g>
<g filter="url(#filter1_d_360_1295)">
<path d="M30.1084 146.274L173.884 63.2648L317.66 146.274L173.884 229.283L30.1084 146.274Z" fill="#001B19"/>
<path d="M173.865 229.32L317.676 146.293V152.148L173.865 235.357L30.2202 152.148V146.274L173.865 229.32Z" fill="#000A0D"/>
</g>
<g filter="url(#filter2_d_360_1295)">
<path d="M30.1084 109.509L173.884 26.4997L317.668 109.476L173.892 192.485L30.1084 109.509Z" fill="#001B19"/>
<path d="M173.865 192.554L317.676 109.527V115.382L173.865 198.59L30.2202 115.382V109.508L173.865 192.554Z" fill="#000A0D"/>
</g>
<path fill-rule="evenodd" clip-rule="evenodd" d="M176.165 95.0526C183.262 93.8724 190.979 94.9936 196.272 98.0493L197.501 98.7589C205.129 103.163 205.129 110.304 197.501 114.708L197.006 114.994C199.641 117.178 199.271 120.204 195.897 122.153L191.918 124.45C185.931 127.907 176.224 127.907 170.237 124.45L129.729 101.063L137.501 96.5755C142.6 93.6312 150.547 93.3326 156.224 95.6797L156.717 95.0662C157.937 93.5484 160.179 92.3848 162.923 91.8459L163.776 91.6783C168.911 90.6697 174.342 92.2486 176.165 95.0526ZM173.096 96.0149C172.09 94.0291 168.381 92.8714 164.884 93.5583L164.03 93.726C162.177 94.0901 160.662 94.8763 159.838 95.9019L158.902 97.0661L160.782 98.1515L158.35 99.5557L155.62 97.9797C151.288 95.4787 144.265 95.4787 139.933 97.9797L134.593 101.063L172.669 123.046C177.313 125.727 184.842 125.727 189.486 123.046L193.465 120.748C195.911 119.336 195.911 117.046 193.465 115.634L191.071 114.252C188.056 112.511 183.849 111.641 179.606 111.88L179.272 109.903C184.54 109.607 189.761 110.687 193.503 112.848L194.681 113.528L195.069 113.304C201.354 109.675 201.354 103.792 195.069 100.163L193.84 99.4536C189.142 96.7412 182.147 95.8614 175.934 97.185L172.661 99.0748L170.229 97.6705L173.096 96.0149Z" fill="#898989"/>
<path d="M173.169 86.1151C170.482 87.6662 170.482 90.181 173.169 91.7321C175.855 93.2831 180.211 93.2831 182.898 91.7321C185.584 90.181 185.584 87.6662 182.898 86.1151C180.211 84.564 175.855 84.564 173.169 86.1151Z" fill="#898989"/>
<g filter="url(#filter3_d_360_1295)">
<rect width="33.462" height="33.462" transform="matrix(0.87157 0.490272 -0.87157 0.490272 78.6074 278.493)" fill="#56FCAC"/>
</g>
<g filter="url(#filter4_d_360_1295)">
<rect width="33.462" height="33.462" transform="matrix(0.87157 0.490272 -0.87157 0.490272 79.105 270.533)" fill="#56FCAC"/>
</g>
<g filter="url(#filter5_d_360_1295)">
<rect width="33.462" height="33.462" transform="matrix(0.87157 0.490272 -0.87157 0.490272 78.6074 262.075)" fill="#56FCAC"/>
</g>
<g filter="url(#filter6_d_360_1295)">
<rect width="33.462" height="33.462" transform="matrix(0.87157 0.490272 -0.87157 0.490272 78.6074 254.115)" fill="#56FCAC"/>
</g>
<path fill-rule="evenodd" clip-rule="evenodd" d="M110.784 266.843L80.6388 283.8L80.6388 317.632L110.784 300.675L110.784 266.843ZM78.7959 282.722L78.7959 320.783L112.627 301.753L112.627 263.692L78.7959 282.722Z" fill="#001B19"/>
<path fill-rule="evenodd" clip-rule="evenodd" d="M76.9532 283.8L46.8082 266.843L46.8082 300.675L76.9532 317.632L76.9532 283.8ZM44.9653 263.692L44.9653 301.753L78.7961 320.783L78.7961 282.722L44.9653 263.692Z" fill="#001B19"/>
<path fill-rule="evenodd" clip-rule="evenodd" d="M108.942 263.692L78.7974 246.735L48.6524 263.692L78.7974 280.649L108.942 263.692ZM78.7974 244.662L44.9666 263.692L78.7974 282.723L112.628 263.692L78.7974 244.662Z" fill="#001B19"/>
<rect width="34.5497" height="34.5497" transform="matrix(0.87157 0.490272 -0.87157 0.490272 78.7974 246.754)" fill="#00463E" fill-opacity="0.5"/>
<rect width="34.5497" height="33.8775" transform="matrix(0.87157 -0.490272 2.26115e-08 1 80.6558 283.87)" fill="#00463E" fill-opacity="0.5"/>
<rect width="34.5497" height="33.8775" transform="matrix(0.87157 0.490272 -2.26115e-08 1 46.8257 266.568)" fill="#00463E" fill-opacity="0.5"/>
<g filter="url(#filter7_d_360_1295)">
<rect width="26.2468" height="26.2468" transform="matrix(0.87157 0.490272 -0.87157 0.490272 297.744 228.609)" fill="#56FCAC"/>
</g>
<g filter="url(#filter8_d_360_1295)">
<rect width="26.2468" height="26.2468" transform="matrix(0.87157 0.490272 -0.87157 0.490272 298.134 222.365)" fill="#56FCAC"/>
</g>
<g filter="url(#filter9_d_360_1295)">
<rect width="26.2468" height="26.2468" transform="matrix(0.87157 0.490272 -0.87157 0.490272 297.744 215.731)" fill="#56FCAC"/>
</g>
<g filter="url(#filter10_d_360_1295)">
<rect width="26.2468" height="26.2468" transform="matrix(0.87157 0.490272 -0.87157 0.490272 297.744 209.487)" fill="#56FCAC"/>
</g>
<path fill-rule="evenodd" clip-rule="evenodd" d="M322.982 219.47L299.337 232.771L299.337 259.308L322.982 246.007L322.982 219.47ZM297.892 231.926L297.892 261.779L324.428 246.853L324.428 216.999L297.892 231.926Z" fill="#001B19"/>
<path fill-rule="evenodd" clip-rule="evenodd" d="M296.446 232.771L272.801 219.47L272.801 246.007L296.446 259.308L296.446 232.771ZM271.355 216.999L271.355 246.853L297.892 261.78L297.892 231.926L271.355 216.999Z" fill="#001B19"/>
<path fill-rule="evenodd" clip-rule="evenodd" d="M321.538 216.999L297.893 203.698L274.248 216.999L297.893 230.3L321.538 216.999ZM297.893 202.072L271.357 216.999L297.893 231.926L324.429 216.999L297.893 202.072Z" fill="#001B19"/>
<rect width="27.1" height="27.1" transform="matrix(0.87157 0.490272 -0.87157 0.490272 297.893 203.713)" fill="#00463E" fill-opacity="0.5"/>
<rect width="27.1" height="26.5727" transform="matrix(0.87157 -0.490272 2.26115e-08 1 299.351 232.826)" fill="#00463E" fill-opacity="0.5"/>
<rect width="27.1" height="26.5727" transform="matrix(0.87157 0.490272 -2.26115e-08 1 272.815 219.255)" fill="#00463E" fill-opacity="0.5"/>
<g filter="url(#filter11_d_360_1295)">
<rect width="33.462" height="33.462" transform="matrix(0.87157 0.490272 -0.87157 0.490272 110.468 97.198)" fill="#56FCAC"/>
</g>
<g filter="url(#filter12_d_360_1295)">
<rect width="33.462" height="33.462" transform="matrix(0.87157 0.490272 -0.87157 0.490272 110.965 89.2378)" fill="#56FCAC"/>
</g>
<g filter="url(#filter13_d_360_1295)">
<rect width="33.462" height="33.462" transform="matrix(0.87157 0.490272 -0.87157 0.490272 110.468 80.78)" fill="#56FCAC"/>
</g>
<g filter="url(#filter14_d_360_1295)">
<rect width="33.462" height="33.462" transform="matrix(0.87157 0.490272 -0.87157 0.490272 110.468 72.8196)" fill="#56FCAC"/>
</g>
<path fill-rule="evenodd" clip-rule="evenodd" d="M142.644 85.5478L112.499 102.505L112.499 136.337L142.644 119.38L142.644 85.5478ZM110.656 101.427L110.656 139.488L144.487 120.457L144.487 82.3967L110.656 101.427Z" fill="#001B19"/>
<path fill-rule="evenodd" clip-rule="evenodd" d="M108.814 102.505L78.6686 85.5479L78.6686 119.38L108.814 136.337L108.814 102.505ZM76.8257 82.3967L76.8257 120.457L110.656 139.488L110.656 101.427L76.8257 82.3967Z" fill="#001B19"/>
<path fill-rule="evenodd" clip-rule="evenodd" d="M140.803 82.397L110.658 65.44L80.5128 82.3971L110.658 99.3541L140.803 82.397ZM110.658 63.3667L76.8269 82.3971L110.658 101.427L144.488 82.397L110.658 63.3667Z" fill="#001B19"/>
<rect width="34.5497" height="34.5497" transform="matrix(0.87157 0.490272 -0.87157 0.490272 110.658 65.4585)" fill="#00463E" fill-opacity="0.5"/>
<rect width="34.5497" height="33.8775" transform="matrix(0.87157 -0.490272 2.26115e-08 1 112.516 102.574)" fill="#00463E" fill-opacity="0.5"/>
<rect width="34.5497" height="33.8775" transform="matrix(0.87157 0.490272 -2.26115e-08 1 78.686 85.2729)" fill="#00463E" fill-opacity="0.5"/>
<g filter="url(#filter15_d_360_1295)">
<rect width="33.462" height="33.462" transform="matrix(0.87157 0.490272 -0.87157 0.490272 249.177 99.9355)" fill="#56FCAC"/>
</g>
<g filter="url(#filter16_d_360_1295)">
<rect width="33.462" height="33.462" transform="matrix(0.87157 0.490272 -0.87157 0.490272 249.674 91.9753)" fill="#56FCAC"/>
</g>
<g filter="url(#filter17_d_360_1295)">
<rect width="33.462" height="33.462" transform="matrix(0.87157 0.490272 -0.87157 0.490272 249.177 83.5176)" fill="#56FCAC"/>
</g>
<g filter="url(#filter18_d_360_1295)">
<rect width="33.462" height="33.462" transform="matrix(0.87157 0.490272 -0.87157 0.490272 249.177 75.5571)" fill="#56FCAC"/>
</g>
<path fill-rule="evenodd" clip-rule="evenodd" d="M281.353 88.2853L251.208 105.242L251.208 139.074L281.353 122.117L281.353 88.2853ZM249.365 104.165L249.365 142.225L283.196 123.195L283.196 85.1342L249.365 104.165Z" fill="#001B19"/>
<path fill-rule="evenodd" clip-rule="evenodd" d="M247.523 105.242L217.378 88.2854L217.378 122.117L247.523 139.074L247.523 105.242ZM215.535 85.1343L215.535 123.195L249.365 142.225L249.365 104.165L215.535 85.1343Z" fill="#001B19"/>
<path fill-rule="evenodd" clip-rule="evenodd" d="M279.512 85.1346L249.367 68.1776L219.222 85.1346L249.367 102.092L279.512 85.1346ZM249.367 66.1042L215.536 85.1346L249.367 104.165L283.197 85.1346L249.367 66.1042Z" fill="#001B19"/>
<rect width="34.5497" height="34.5497" transform="matrix(0.87157 0.490272 -0.87157 0.490272 249.367 68.196)" fill="#00463E" fill-opacity="0.5"/>
<rect width="34.5497" height="33.8775" transform="matrix(0.87157 -0.490272 2.26115e-08 1 251.225 105.312)" fill="#00463E" fill-opacity="0.5"/>
<rect width="34.5497" height="33.8775" transform="matrix(0.87157 0.490272 -2.26115e-08 1 217.395 88.0105)" fill="#00463E" fill-opacity="0.5"/>
<defs>
<filter id="filter0_d_360_1295" x="30.1084" y="100.031" width="295.567" height="184.092" filterUnits="userSpaceOnUse" color-interpolation-filters="sRGB">
<feFlood flood-opacity="0" result="BackgroundImageFix"/>
<feColorMatrix in="SourceAlpha" type="matrix" values="0 0 0 0 0 0 0 0 0 0 0 0 0 0 0 0 0 0 127 0" result="hardAlpha"/>
<feOffset dx="4" dy="8"/>
<feGaussianBlur stdDeviation="2"/>
<feComposite in2="hardAlpha" operator="out"/>
<feColorMatrix type="matrix" values="0 0 0 0 0 0 0 0 0 0 0 0 0 0 0 0 0 0 0.25 0"/>
<feBlend mode="normal" in2="BackgroundImageFix" result="effect1_dropShadow_360_1295"/>
<feBlend mode="normal" in="SourceGraphic" in2="effect1_dropShadow_360_1295" result="shape"/>
</filter>
<filter id="filter1_d_360_1295" x="30.1084" y="63.2649" width="295.567" height="184.092" filterUnits="userSpaceOnUse" color-interpolation-filters="sRGB">
<feFlood flood-opacity="0" result="BackgroundImageFix"/>
<feColorMatrix in="SourceAlpha" type="matrix" values="0 0 0 0 0 0 0 0 0 0 0 0 0 0 0 0 0 0 127 0" result="hardAlpha"/>
<feOffset dx="4" dy="8"/>
<feGaussianBlur stdDeviation="2"/>
<feComposite in2="hardAlpha" operator="out"/>
<feColorMatrix type="matrix" values="0 0 0 0 0 0 0 0 0 0 0 0 0 0 0 0 0 0 0.25 0"/>
<feBlend mode="normal" in2="BackgroundImageFix" result="effect1_dropShadow_360_1295"/>
<feBlend mode="normal" in="SourceGraphic" in2="effect1_dropShadow_360_1295" result="shape"/>
</filter>
<filter id="filter2_d_360_1295" x="30.1084" y="26.4998" width="295.567" height="184.091" filterUnits="userSpaceOnUse" color-interpolation-filters="sRGB">
<feFlood flood-opacity="0" result="BackgroundImageFix"/>
<feColorMatrix in="SourceAlpha" type="matrix" values="0 0 0 0 0 0 0 0 0 0 0 0 0 0 0 0 0 0 127 0" result="hardAlpha"/>
<feOffset dx="4" dy="8"/>
<feGaussianBlur stdDeviation="2"/>
<feComposite in2="hardAlpha" operator="out"/>
<feColorMatrix type="matrix" values="0 0 0 0 0 0 0 0 0 0 0 0 0 0 0 0 0 0 0.25 0"/>
<feBlend mode="normal" in2="BackgroundImageFix" result="effect1_dropShadow_360_1295"/>
<feBlend mode="normal" in="SourceGraphic" in2="effect1_dropShadow_360_1295" result="shape"/>
</filter>
<filter id="filter3_d_360_1295" x="49.4429" y="278.493" width="66.3291" height="44.811" filterUnits="userSpaceOnUse" color-interpolation-filters="sRGB">
<feFlood flood-opacity="0" result="BackgroundImageFix"/>
<feColorMatrix in="SourceAlpha" type="matrix" values="0 0 0 0 0 0 0 0 0 0 0 0 0 0 0 0 0 0 127 0" result="hardAlpha"/>
<feOffset dx="4" dy="8"/>
<feGaussianBlur stdDeviation="2"/>
<feComposite in2="hardAlpha" operator="out"/>
<feColorMatrix type="matrix" values="0 0 0 0 0 0 0 0 0 0 0 0 0 0 0 0 0 0 0.5 0"/>
<feBlend mode="normal" in2="BackgroundImageFix" result="effect1_dropShadow_360_1295"/>
<feBlend mode="normal" in="SourceGraphic" in2="effect1_dropShadow_360_1295" result="shape"/>
</filter>
<filter id="filter4_d_360_1295" x="49.9404" y="270.533" width="66.3291" height="44.811" filterUnits="userSpaceOnUse" color-interpolation-filters="sRGB">
<feFlood flood-opacity="0" result="BackgroundImageFix"/>
<feColorMatrix in="SourceAlpha" type="matrix" values="0 0 0 0 0 0 0 0 0 0 0 0 0 0 0 0 0 0 127 0" result="hardAlpha"/>
<feOffset dx="4" dy="8"/>
<feGaussianBlur stdDeviation="2"/>
<feComposite in2="hardAlpha" operator="out"/>
<feColorMatrix type="matrix" values="0 0 0 0 0 0 0 0 0 0 0 0 0 0 0 0 0 0 0.5 0"/>
<feBlend mode="normal" in2="BackgroundImageFix" result="effect1_dropShadow_360_1295"/>
<feBlend mode="normal" in="SourceGraphic" in2="effect1_dropShadow_360_1295" result="shape"/>
</filter>
<filter id="filter5_d_360_1295" x="49.4429" y="262.075" width="66.3291" height="44.811" filterUnits="userSpaceOnUse" color-interpolation-filters="sRGB">
<feFlood flood-opacity="0" result="BackgroundImageFix"/>
<feColorMatrix in="SourceAlpha" type="matrix" values="0 0 0 0 0 0 0 0 0 0 0 0 0 0 0 0 0 0 127 0" result="hardAlpha"/>
<feOffset dx="4" dy="8"/>
<feGaussianBlur stdDeviation="2"/>
<feComposite in2="hardAlpha" operator="out"/>
<feColorMatrix type="matrix" values="0 0 0 0 0 0 0 0 0 0 0 0 0 0 0 0 0 0 0.5 0"/>
<feBlend mode="normal" in2="BackgroundImageFix" result="effect1_dropShadow_360_1295"/>
<feBlend mode="normal" in="SourceGraphic" in2="effect1_dropShadow_360_1295" result="shape"/>
</filter>
<filter id="filter6_d_360_1295" x="49.4429" y="254.115" width="66.3291" height="44.811" filterUnits="userSpaceOnUse" color-interpolation-filters="sRGB">
<feFlood flood-opacity="0" result="BackgroundImageFix"/>
<feColorMatrix in="SourceAlpha" type="matrix" values="0 0 0 0 0 0 0 0 0 0 0 0 0 0 0 0 0 0 127 0" result="hardAlpha"/>
<feOffset dx="4" dy="8"/>
<feGaussianBlur stdDeviation="2"/>
<feComposite in2="hardAlpha" operator="out"/>
<feColorMatrix type="matrix" values="0 0 0 0 0 0 0 0 0 0 0 0 0 0 0 0 0 0 0.5 0"/>
<feBlend mode="normal" in2="BackgroundImageFix" result="effect1_dropShadow_360_1295"/>
<feBlend mode="normal" in="SourceGraphic" in2="effect1_dropShadow_360_1295" result="shape"/>
</filter>
<filter id="filter7_d_360_1295" x="274.868" y="228.609" width="53.752" height="37.7361" filterUnits="userSpaceOnUse" color-interpolation-filters="sRGB">
<feFlood flood-opacity="0" result="BackgroundImageFix"/>
<feColorMatrix in="SourceAlpha" type="matrix" values="0 0 0 0 0 0 0 0 0 0 0 0 0 0 0 0 0 0 127 0" result="hardAlpha"/>
<feOffset dx="4" dy="8"/>
<feGaussianBlur stdDeviation="2"/>
<feComposite in2="hardAlpha" operator="out"/>
<feColorMatrix type="matrix" values="0 0 0 0 0 0 0 0 0 0 0 0 0 0 0 0 0 0 0.5 0"/>
<feBlend mode="normal" in2="BackgroundImageFix" result="effect1_dropShadow_360_1295"/>
<feBlend mode="normal" in="SourceGraphic" in2="effect1_dropShadow_360_1295" result="shape"/>
</filter>
<filter id="filter8_d_360_1295" x="275.258" y="222.365" width="53.752" height="37.7361" filterUnits="userSpaceOnUse" color-interpolation-filters="sRGB">
<feFlood flood-opacity="0" result="BackgroundImageFix"/>
<feColorMatrix in="SourceAlpha" type="matrix" values="0 0 0 0 0 0 0 0 0 0 0 0 0 0 0 0 0 0 127 0" result="hardAlpha"/>
<feOffset dx="4" dy="8"/>
<feGaussianBlur stdDeviation="2"/>
<feComposite in2="hardAlpha" operator="out"/>
<feColorMatrix type="matrix" values="0 0 0 0 0 0 0 0 0 0 0 0 0 0 0 0 0 0 0.5 0"/>
<feBlend mode="normal" in2="BackgroundImageFix" result="effect1_dropShadow_360_1295"/>
<feBlend mode="normal" in="SourceGraphic" in2="effect1_dropShadow_360_1295" result="shape"/>
</filter>
<filter id="filter9_d_360_1295" x="274.868" y="215.731" width="53.752" height="37.7361" filterUnits="userSpaceOnUse" color-interpolation-filters="sRGB">
<feFlood flood-opacity="0" result="BackgroundImageFix"/>
<feColorMatrix in="SourceAlpha" type="matrix" values="0 0 0 0 0 0 0 0 0 0 0 0 0 0 0 0 0 0 127 0" result="hardAlpha"/>
<feOffset dx="4" dy="8"/>
<feGaussianBlur stdDeviation="2"/>
<feComposite in2="hardAlpha" operator="out"/>
<feColorMatrix type="matrix" values="0 0 0 0 0 0 0 0 0 0 0 0 0 0 0 0 0 0 0.5 0"/>
<feBlend mode="normal" in2="BackgroundImageFix" result="effect1_dropShadow_360_1295"/>
<feBlend mode="normal" in="SourceGraphic" in2="effect1_dropShadow_360_1295" result="shape"/>
</filter>
<filter id="filter10_d_360_1295" x="274.868" y="209.487" width="53.752" height="37.7361" filterUnits="userSpaceOnUse" color-interpolation-filters="sRGB">
<feFlood flood-opacity="0" result="BackgroundImageFix"/>
<feColorMatrix in="SourceAlpha" type="matrix" values="0 0 0 0 0 0 0 0 0 0 0 0 0 0 0 0 0 0 127 0" result="hardAlpha"/>
<feOffset dx="4" dy="8"/>
<feGaussianBlur stdDeviation="2"/>
<feComposite in2="hardAlpha" operator="out"/>
<feColorMatrix type="matrix" values="0 0 0 0 0 0 0 0 0 0 0 0 0 0 0 0 0 0 0.5 0"/>
<feBlend mode="normal" in2="BackgroundImageFix" result="effect1_dropShadow_360_1295"/>
<feBlend mode="normal" in="SourceGraphic" in2="effect1_dropShadow_360_1295" result="shape"/>
</filter>
<filter id="filter11_d_360_1295" x="81.3032" y="97.198" width="66.3291" height="44.811" filterUnits="userSpaceOnUse" color-interpolation-filters="sRGB">
<feFlood flood-opacity="0" result="BackgroundImageFix"/>
<feColorMatrix in="SourceAlpha" type="matrix" values="0 0 0 0 0 0 0 0 0 0 0 0 0 0 0 0 0 0 127 0" result="hardAlpha"/>
<feOffset dx="4" dy="8"/>
<feGaussianBlur stdDeviation="2"/>
<feComposite in2="hardAlpha" operator="out"/>
<feColorMatrix type="matrix" values="0 0 0 0 0 0 0 0 0 0 0 0 0 0 0 0 0 0 0.5 0"/>
<feBlend mode="normal" in2="BackgroundImageFix" result="effect1_dropShadow_360_1295"/>
<feBlend mode="normal" in="SourceGraphic" in2="effect1_dropShadow_360_1295" result="shape"/>
</filter>
<filter id="filter12_d_360_1295" x="81.8008" y="89.2378" width="66.3291" height="44.811" filterUnits="userSpaceOnUse" color-interpolation-filters="sRGB">
<feFlood flood-opacity="0" result="BackgroundImageFix"/>
<feColorMatrix in="SourceAlpha" type="matrix" values="0 0 0 0 0 0 0 0 0 0 0 0 0 0 0 0 0 0 127 0" result="hardAlpha"/>
<feOffset dx="4" dy="8"/>
<feGaussianBlur stdDeviation="2"/>
<feComposite in2="hardAlpha" operator="out"/>
<feColorMatrix type="matrix" values="0 0 0 0 0 0 0 0 0 0 0 0 0 0 0 0 0 0 0.5 0"/>
<feBlend mode="normal" in2="BackgroundImageFix" result="effect1_dropShadow_360_1295"/>
<feBlend mode="normal" in="SourceGraphic" in2="effect1_dropShadow_360_1295" result="shape"/>
</filter>
<filter id="filter13_d_360_1295" x="81.3032" y="80.78" width="66.3291" height="44.811" filterUnits="userSpaceOnUse" color-interpolation-filters="sRGB">
<feFlood flood-opacity="0" result="BackgroundImageFix"/>
<feColorMatrix in="SourceAlpha" type="matrix" values="0 0 0 0 0 0 0 0 0 0 0 0 0 0 0 0 0 0 127 0" result="hardAlpha"/>
<feOffset dx="4" dy="8"/>
<feGaussianBlur stdDeviation="2"/>
<feComposite in2="hardAlpha" operator="out"/>
<feColorMatrix type="matrix" values="0 0 0 0 0 0 0 0 0 0 0 0 0 0 0 0 0 0 0.5 0"/>
<feBlend mode="normal" in2="BackgroundImageFix" result="effect1_dropShadow_360_1295"/>
<feBlend mode="normal" in="SourceGraphic" in2="effect1_dropShadow_360_1295" result="shape"/>
</filter>
<filter id="filter14_d_360_1295" x="81.3032" y="72.8196" width="66.3291" height="44.811" filterUnits="userSpaceOnUse" color-interpolation-filters="sRGB">
<feFlood flood-opacity="0" result="BackgroundImageFix"/>
<feColorMatrix in="SourceAlpha" type="matrix" values="0 0 0 0 0 0 0 0 0 0 0 0 0 0 0 0 0 0 127 0" result="hardAlpha"/>
<feOffset dx="4" dy="8"/>
<feGaussianBlur stdDeviation="2"/>
<feComposite in2="hardAlpha" operator="out"/>
<feColorMatrix type="matrix" values="0 0 0 0 0 0 0 0 0 0 0 0 0 0 0 0 0 0 0.5 0"/>
<feBlend mode="normal" in2="BackgroundImageFix" result="effect1_dropShadow_360_1295"/>
<feBlend mode="normal" in="SourceGraphic" in2="effect1_dropShadow_360_1295" result="shape"/>
</filter>
<filter id="filter15_d_360_1295" x="220.012" y="99.9355" width="66.3291" height="44.811" filterUnits="userSpaceOnUse" color-interpolation-filters="sRGB">
<feFlood flood-opacity="0" result="BackgroundImageFix"/>
<feColorMatrix in="SourceAlpha" type="matrix" values="0 0 0 0 0 0 0 0 0 0 0 0 0 0 0 0 0 0 127 0" result="hardAlpha"/>
<feOffset dx="4" dy="8"/>
<feGaussianBlur stdDeviation="2"/>
<feComposite in2="hardAlpha" operator="out"/>
<feColorMatrix type="matrix" values="0 0 0 0 0 0 0 0 0 0 0 0 0 0 0 0 0 0 0.5 0"/>
<feBlend mode="normal" in2="BackgroundImageFix" result="effect1_dropShadow_360_1295"/>
<feBlend mode="normal" in="SourceGraphic" in2="effect1_dropShadow_360_1295" result="shape"/>
</filter>
<filter id="filter16_d_360_1295" x="220.51" y="91.9753" width="66.3291" height="44.811" filterUnits="userSpaceOnUse" color-interpolation-filters="sRGB">
<feFlood flood-opacity="0" result="BackgroundImageFix"/>
<feColorMatrix in="SourceAlpha" type="matrix" values="0 0 0 0 0 0 0 0 0 0 0 0 0 0 0 0 0 0 127 0" result="hardAlpha"/>
<feOffset dx="4" dy="8"/>
<feGaussianBlur stdDeviation="2"/>
<feComposite in2="hardAlpha" operator="out"/>
<feColorMatrix type="matrix" values="0 0 0 0 0 0 0 0 0 0 0 0 0 0 0 0 0 0 0.5 0"/>
<feBlend mode="normal" in2="BackgroundImageFix" result="effect1_dropShadow_360_1295"/>
<feBlend mode="normal" in="SourceGraphic" in2="effect1_dropShadow_360_1295" result="shape"/>
</filter>
<filter id="filter17_d_360_1295" x="220.012" y="83.5176" width="66.3291" height="44.811" filterUnits="userSpaceOnUse" color-interpolation-filters="sRGB">
<feFlood flood-opacity="0" result="BackgroundImageFix"/>
<feColorMatrix in="SourceAlpha" type="matrix" values="0 0 0 0 0 0 0 0 0 0 0 0 0 0 0 0 0 0 127 0" result="hardAlpha"/>
<feOffset dx="4" dy="8"/>
<feGaussianBlur stdDeviation="2"/>
<feComposite in2="hardAlpha" operator="out"/>
<feColorMatrix type="matrix" values="0 0 0 0 0 0 0 0 0 0 0 0 0 0 0 0 0 0 0.5 0"/>
<feBlend mode="normal" in2="BackgroundImageFix" result="effect1_dropShadow_360_1295"/>
<feBlend mode="normal" in="SourceGraphic" in2="effect1_dropShadow_360_1295" result="shape"/>
</filter>
<filter id="filter18_d_360_1295" x="220.012" y="75.5571" width="66.3291" height="44.811" filterUnits="userSpaceOnUse" color-interpolation-filters="sRGB">
<feFlood flood-opacity="0" result="BackgroundImageFix"/>
<feColorMatrix in="SourceAlpha" type="matrix" values="0 0 0 0 0 0 0 0 0 0 0 0 0 0 0 0 0 0 127 0" result="hardAlpha"/>
<feOffset dx="4" dy="8"/>
<feGaussianBlur stdDeviation="2"/>
<feComposite in2="hardAlpha" operator="out"/>
<feColorMatrix type="matrix" values="0 0 0 0 0 0 0 0 0 0 0 0 0 0 0 0 0 0 0.5 0"/>
<feBlend mode="normal" in2="BackgroundImageFix" result="effect1_dropShadow_360_1295"/>
<feBlend mode="normal" in="SourceGraphic" in2="effect1_dropShadow_360_1295" result="shape"/>
</filter>
</defs>
</svg>
