<svg width="44" height="44" viewBox="0 0 44 44" fill="none" xmlns="http://www.w3.org/2000/svg">
<path d="M34.5983 37.0714H7.16797V32.4947C7.16797 29.0017 9.99965 26.17 13.4927 26.17L12.9114 24.5826C12.4992 23.457 12.5655 22.2119 13.0949 21.1365L13.2915 20.7373C14.3916 18.5026 17.2406 17.7997 19.2539 19.2662C20.7236 15.8978 24.0495 13.7202 27.7246 13.7202H28.5826C33.4392 13.7202 37.3762 17.6573 37.3762 22.5138V23.6335C39.5528 23.6335 41.3173 25.398 41.3173 27.5746V30.3524C41.3173 34.0632 38.3091 37.0714 34.5983 37.0714Z" fill="#56FCAC"/>
<path fill-rule="evenodd" clip-rule="evenodd" d="M15.2238 14.8259C16.9693 11.6257 20.3363 9.60107 24.0281 9.60107H24.8862C30.1782 9.60107 34.4682 13.8911 34.4682 19.1831V19.5798C36.705 19.9551 38.4093 21.9005 38.4093 24.2439V27.0217C38.4093 31.168 35.0481 34.5292 30.9019 34.5292H2.68311V29.164C2.68311 25.6088 5.29135 22.6627 8.69871 22.135L8.4746 21.523C7.98835 20.1952 8.06659 18.7262 8.69114 17.4576L8.88768 17.0583C10.0641 14.6686 12.9121 13.7429 15.2238 14.8259ZM14.7691 16.3645C13.1832 15.4733 11.1288 16.0763 10.3024 17.7548L10.1059 18.154C9.67165 19.0361 9.61725 20.0575 9.95534 20.9807L10.3472 22.0508H11.7019V23.6277H9.79629C6.73868 23.6277 4.26001 26.1064 4.26001 29.164V32.9523H30.9019C34.1772 32.9523 36.8324 30.2971 36.8324 27.0217V24.2439C36.8324 22.5027 35.4209 21.0912 33.6798 21.0912H32.0085C29.8855 21.0912 27.874 22.0414 26.5255 23.6812L25.3075 22.6796C26.9555 20.6756 29.4139 19.5143 32.0085 19.5143H32.8913V19.1831C32.8913 14.762 29.3073 11.178 24.8862 11.178H24.0281C20.7203 11.178 17.7218 13.1066 16.346 16.1038V18.4021H14.7691V16.3645Z" fill="black"/>
<path d="M7.16797 10.3244C7.16797 12.1999 8.68838 13.7203 10.5639 13.7203C12.4394 13.7203 13.9598 12.1999 13.9598 10.3244C13.9598 8.44888 12.4394 6.92847 10.5639 6.92847C8.68838 6.92847 7.16797 8.44888 7.16797 10.3244Z" fill="black"/>
</svg>
